<svg width="311" height="106" viewBox="0 0 311 106" fill="none" xmlns="http://www.w3.org/2000/svg">
<path d="M88.768 64.112C88.032 64.112 87.3707 63.984 86.784 63.728C86.208 63.4613 85.7547 63.0987 85.424 62.64C85.0933 62.1707 84.9227 61.632 84.912 61.024H86.464C86.5173 61.5467 86.7307 61.9893 87.104 62.352C87.488 62.704 88.0427 62.88 88.768 62.88C89.4613 62.88 90.0053 62.7093 90.4 62.368C90.8053 62.016 91.008 61.568 91.008 61.024C91.008 60.5973 90.8907 60.2507 90.656 59.984C90.4213 59.7173 90.128 59.5147 89.776 59.376C89.424 59.2373 88.9493 59.088 88.352 58.928C87.616 58.736 87.024 58.544 86.576 58.352C86.1387 58.16 85.76 57.8613 85.44 57.456C85.1307 57.04 84.976 56.4853 84.976 55.792C84.976 55.184 85.1307 54.6453 85.44 54.176C85.7493 53.7067 86.1813 53.344 86.736 53.088C87.3013 52.832 87.9467 52.704 88.672 52.704C89.7173 52.704 90.5707 52.9653 91.232 53.488C91.904 54.0107 92.2827 54.704 92.368 55.568H90.768C90.7147 55.1413 90.4907 54.768 90.096 54.448C89.7013 54.1173 89.1787 53.952 88.528 53.952C87.92 53.952 87.424 54.112 87.04 54.432C86.656 54.7413 86.464 55.1787 86.464 55.744C86.464 56.1493 86.576 56.48 86.8 56.736C87.0347 56.992 87.3173 57.1893 87.648 57.328C87.9893 57.456 88.464 57.6053 89.072 57.776C89.808 57.9787 90.4 58.1813 90.848 58.384C91.296 58.576 91.68 58.88 92 59.296C92.32 59.7013 92.48 60.256 92.48 60.96C92.48 61.504 92.336 62.016 92.048 62.496C91.76 62.976 91.3333 63.3653 90.768 63.664C90.2027 63.9627 89.536 64.112 88.768 64.112ZM102.623 59.28C102.623 59.5573 102.607 59.8507 102.575 60.16H95.5666C95.62 61.024 95.9133 61.7013 96.4466 62.192C96.9906 62.672 97.6466 62.912 98.4146 62.912C99.044 62.912 99.5666 62.768 99.9826 62.48C100.409 62.1813 100.708 61.7867 100.879 61.296H102.447C102.212 62.1387 101.743 62.8267 101.039 63.36C100.335 63.8827 99.46 64.144 98.4146 64.144C97.5826 64.144 96.836 63.9573 96.1746 63.584C95.524 63.2107 95.012 62.6827 94.6386 62C94.2653 61.3067 94.0786 60.5067 94.0786 59.6C94.0786 58.6933 94.26 57.8987 94.6226 57.216C94.9853 56.5333 95.492 56.0107 96.1426 55.648C96.804 55.2747 97.5613 55.088 98.4146 55.088C99.2466 55.088 99.9826 55.2693 100.623 55.632C101.263 55.9947 101.753 56.496 102.095 57.136C102.447 57.7653 102.623 58.48 102.623 59.28ZM101.119 58.976C101.119 58.4213 100.996 57.9467 100.751 57.552C100.505 57.1467 100.169 56.8427 99.7426 56.64C99.3266 56.4267 98.8626 56.32 98.3506 56.32C97.6146 56.32 96.9853 56.5547 96.4626 57.024C95.9506 57.4933 95.6573 58.144 95.5826 58.976H101.119ZM112.545 59.28C112.545 59.5573 112.529 59.8507 112.497 60.16H105.489C105.542 61.024 105.835 61.7013 106.369 62.192C106.913 62.672 107.569 62.912 108.337 62.912C108.966 62.912 109.489 62.768 109.905 62.48C110.331 62.1813 110.63 61.7867 110.801 61.296H112.369C112.134 62.1387 111.665 62.8267 110.961 63.36C110.257 63.8827 109.382 64.144 108.337 64.144C107.505 64.144 106.758 63.9573 106.097 63.584C105.446 63.2107 104.934 62.6827 104.561 62C104.187 61.3067 104.001 60.5067 104.001 59.6C104.001 58.6933 104.182 57.8987 104.545 57.216C104.907 56.5333 105.414 56.0107 106.065 55.648C106.726 55.2747 107.483 55.088 108.337 55.088C109.169 55.088 109.905 55.2693 110.545 55.632C111.185 55.9947 111.675 56.496 112.017 57.136C112.369 57.7653 112.545 58.48 112.545 59.28ZM111.041 58.976C111.041 58.4213 110.918 57.9467 110.673 57.552C110.427 57.1467 110.091 56.8427 109.665 56.64C109.249 56.4267 108.785 56.32 108.273 56.32C107.537 56.32 106.907 56.5547 106.385 57.024C105.873 57.4933 105.579 58.144 105.505 58.976H111.041ZM130.412 55.232L127.676 64H126.172L124.06 57.04L121.948 64H120.444L117.692 55.232H119.18L121.196 62.592L123.372 55.232H124.86L126.988 62.608L128.972 55.232H130.412ZM136.209 55.072C136.87 55.072 137.468 55.216 138.001 55.504C138.534 55.7813 138.95 56.2027 139.249 56.768C139.558 57.3333 139.713 58.0213 139.713 58.832V64H138.273V59.04C138.273 58.1653 138.054 57.4987 137.617 57.04C137.18 56.5707 136.582 56.336 135.825 56.336C135.057 56.336 134.444 56.576 133.985 57.056C133.537 57.536 133.313 58.2347 133.313 59.152V64H131.857V52.16H133.313V56.48C133.601 56.032 133.996 55.6853 134.497 55.44C135.009 55.1947 135.58 55.072 136.209 55.072ZM150.091 59.28C150.091 59.5573 150.075 59.8507 150.043 60.16H143.035C143.089 61.024 143.382 61.7013 143.915 62.192C144.459 62.672 145.115 62.912 145.883 62.912C146.513 62.912 147.035 62.768 147.451 62.48C147.878 62.1813 148.177 61.7867 148.347 61.296H149.915C149.681 62.1387 149.211 62.8267 148.507 63.36C147.803 63.8827 146.929 64.144 145.883 64.144C145.051 64.144 144.305 63.9573 143.643 63.584C142.993 63.2107 142.481 62.6827 142.107 62C141.734 61.3067 141.547 60.5067 141.547 59.6C141.547 58.6933 141.729 57.8987 142.091 57.216C142.454 56.5333 142.961 56.0107 143.611 55.648C144.273 55.2747 145.03 55.088 145.883 55.088C146.715 55.088 147.451 55.2693 148.091 55.632C148.731 55.9947 149.222 56.496 149.563 57.136C149.915 57.7653 150.091 58.48 150.091 59.28ZM148.587 58.976C148.587 58.4213 148.465 57.9467 148.219 57.552C147.974 57.1467 147.638 56.8427 147.211 56.64C146.795 56.4267 146.331 56.32 145.819 56.32C145.083 56.32 144.454 56.5547 143.931 57.024C143.419 57.4933 143.126 58.144 143.051 58.976H148.587ZM153.469 56.656C153.725 56.1547 154.088 55.7653 154.557 55.488C155.037 55.2107 155.619 55.072 156.301 55.072V56.576H155.917C154.285 56.576 153.469 57.4613 153.469 59.232V64H152.013V55.232H153.469V56.656ZM165.982 59.28C165.982 59.5573 165.966 59.8507 165.934 60.16H158.926C158.979 61.024 159.273 61.7013 159.806 62.192C160.35 62.672 161.006 62.912 161.774 62.912C162.403 62.912 162.926 62.768 163.342 62.48C163.769 62.1813 164.067 61.7867 164.238 61.296H165.806C165.571 62.1387 165.102 62.8267 164.398 63.36C163.694 63.8827 162.819 64.144 161.774 64.144C160.942 64.144 160.195 63.9573 159.534 63.584C158.883 63.2107 158.371 62.6827 157.998 62C157.625 61.3067 157.438 60.5067 157.438 59.6C157.438 58.6933 157.619 57.8987 157.982 57.216C158.345 56.5333 158.851 56.0107 159.502 55.648C160.163 55.2747 160.921 55.088 161.774 55.088C162.606 55.088 163.342 55.2693 163.982 55.632C164.622 55.9947 165.113 56.496 165.454 57.136C165.806 57.7653 165.982 58.48 165.982 59.28ZM164.478 58.976C164.478 58.4213 164.355 57.9467 164.11 57.552C163.865 57.1467 163.529 56.8427 163.102 56.64C162.686 56.4267 162.222 56.32 161.71 56.32C160.974 56.32 160.345 56.5547 159.822 57.024C159.31 57.4933 159.017 58.144 158.942 58.976H164.478ZM179.722 55.232L174.442 68.128H172.938L174.666 63.904L171.13 55.232H172.746L175.498 62.336L178.218 55.232H179.722ZM185.009 64.144C184.188 64.144 183.441 63.9573 182.769 63.584C182.108 63.2107 181.585 62.6827 181.201 62C180.828 61.3067 180.641 60.5067 180.641 59.6C180.641 58.704 180.833 57.9147 181.217 57.232C181.612 56.5387 182.145 56.0107 182.817 55.648C183.489 55.2747 184.241 55.088 185.073 55.088C185.905 55.088 186.657 55.2747 187.329 55.648C188.001 56.0107 188.529 56.5333 188.913 57.216C189.308 57.8987 189.505 58.6933 189.505 59.6C189.505 60.5067 189.302 61.3067 188.897 62C188.502 62.6827 187.964 63.2107 187.281 63.584C186.598 63.9573 185.841 64.144 185.009 64.144ZM185.009 62.864C185.532 62.864 186.022 62.7413 186.481 62.496C186.94 62.2507 187.308 61.8827 187.585 61.392C187.873 60.9013 188.017 60.304 188.017 59.6C188.017 58.896 187.878 58.2987 187.601 57.808C187.324 57.3173 186.961 56.9547 186.513 56.72C186.065 56.4747 185.58 56.352 185.057 56.352C184.524 56.352 184.033 56.4747 183.585 56.72C183.148 56.9547 182.796 57.3173 182.529 57.808C182.262 58.2987 182.129 58.896 182.129 59.6C182.129 60.3147 182.257 60.9173 182.513 61.408C182.78 61.8987 183.132 62.2667 183.569 62.512C184.006 62.7467 184.486 62.864 185.009 62.864ZM199.196 55.232V64H197.74V62.704C197.462 63.152 197.073 63.504 196.572 63.76C196.081 64.0053 195.537 64.128 194.94 64.128C194.257 64.128 193.644 63.9893 193.1 63.712C192.556 63.424 192.124 62.9973 191.804 62.432C191.494 61.8667 191.34 61.1787 191.34 60.368V55.232H192.78V60.176C192.78 61.04 192.998 61.7067 193.436 62.176C193.873 62.6347 194.47 62.864 195.228 62.864C196.006 62.864 196.62 62.624 197.068 62.144C197.516 61.664 197.74 60.9653 197.74 60.048V55.232H199.196ZM203.11 56.656C203.366 56.1547 203.729 55.7653 204.198 55.488C204.678 55.2107 205.259 55.072 205.942 55.072V56.576H205.558C203.926 56.576 203.11 57.4613 203.11 59.232V64H201.654V55.232H203.11V56.656ZM222.432 55.072C223.115 55.072 223.723 55.216 224.256 55.504C224.79 55.7813 225.211 56.2027 225.52 56.768C225.83 57.3333 225.984 58.0213 225.984 58.832V64H224.544V59.04C224.544 58.1653 224.326 57.4987 223.888 57.04C223.462 56.5707 222.88 56.336 222.144 56.336C221.387 56.336 220.784 56.5813 220.336 57.072C219.888 57.552 219.664 58.2507 219.664 59.168V64H218.224V59.04C218.224 58.1653 218.006 57.4987 217.568 57.04C217.142 56.5707 216.56 56.336 215.824 56.336C215.067 56.336 214.464 56.5813 214.016 57.072C213.568 57.552 213.344 58.2507 213.344 59.168V64H211.888V55.232H213.344V56.496C213.632 56.0373 214.016 55.6853 214.496 55.44C214.987 55.1947 215.526 55.072 216.112 55.072C216.848 55.072 217.499 55.2373 218.064 55.568C218.63 55.8987 219.051 56.384 219.328 57.024C219.574 56.4053 219.979 55.9253 220.544 55.584C221.11 55.2427 221.739 55.072 222.432 55.072ZM232.197 64.144C231.375 64.144 230.629 63.9573 229.957 63.584C229.295 63.2107 228.773 62.6827 228.389 62C228.015 61.3067 227.829 60.5067 227.829 59.6C227.829 58.704 228.021 57.9147 228.405 57.232C228.799 56.5387 229.333 56.0107 230.005 55.648C230.677 55.2747 231.429 55.088 232.261 55.088C233.093 55.088 233.845 55.2747 234.517 55.648C235.189 56.0107 235.717 56.5333 236.101 57.216C236.495 57.8987 236.693 58.6933 236.693 59.6C236.693 60.5067 236.49 61.3067 236.085 62C235.69 62.6827 235.151 63.2107 234.469 63.584C233.786 63.9573 233.029 64.144 232.197 64.144ZM232.197 62.864C232.719 62.864 233.21 62.7413 233.669 62.496C234.127 62.2507 234.495 61.8827 234.773 61.392C235.061 60.9013 235.205 60.304 235.205 59.6C235.205 58.896 235.066 58.2987 234.789 57.808C234.511 57.3173 234.149 56.9547 233.701 56.72C233.253 56.4747 232.767 56.352 232.245 56.352C231.711 56.352 231.221 56.4747 230.773 56.72C230.335 56.9547 229.983 57.3173 229.717 57.808C229.45 58.2987 229.317 58.896 229.317 59.6C229.317 60.3147 229.445 60.9173 229.701 61.408C229.967 61.8987 230.319 62.2667 230.757 62.512C231.194 62.7467 231.674 62.864 232.197 62.864ZM242.879 55.072C243.946 55.072 244.81 55.3973 245.471 56.048C246.132 56.688 246.463 57.616 246.463 58.832V64H245.023V59.04C245.023 58.1653 244.804 57.4987 244.367 57.04C243.93 56.5707 243.332 56.336 242.575 56.336C241.807 56.336 241.194 56.576 240.735 57.056C240.287 57.536 240.063 58.2347 240.063 59.152V64H238.607V55.232H240.063V56.48C240.351 56.032 240.74 55.6853 241.231 55.44C241.732 55.1947 242.282 55.072 242.879 55.072ZM256.841 59.28C256.841 59.5573 256.825 59.8507 256.793 60.16H249.785C249.839 61.024 250.132 61.7013 250.665 62.192C251.209 62.672 251.865 62.912 252.633 62.912C253.263 62.912 253.785 62.768 254.201 62.48C254.628 62.1813 254.927 61.7867 255.097 61.296H256.665C256.431 62.1387 255.961 62.8267 255.257 63.36C254.553 63.8827 253.679 64.144 252.633 64.144C251.801 64.144 251.055 63.9573 250.393 63.584C249.743 63.2107 249.231 62.6827 248.857 62C248.484 61.3067 248.297 60.5067 248.297 59.6C248.297 58.6933 248.479 57.8987 248.841 57.216C249.204 56.5333 249.711 56.0107 250.361 55.648C251.023 55.2747 251.78 55.088 252.633 55.088C253.465 55.088 254.201 55.2693 254.841 55.632C255.481 55.9947 255.972 56.496 256.313 57.136C256.665 57.7653 256.841 58.48 256.841 59.28ZM255.337 58.976C255.337 58.4213 255.215 57.9467 254.969 57.552C254.724 57.1467 254.388 56.8427 253.961 56.64C253.545 56.4267 253.081 56.32 252.569 56.32C251.833 56.32 251.204 56.5547 250.681 57.024C250.169 57.4933 249.876 58.144 249.801 58.976H255.337ZM266.315 55.232L261.035 68.128H259.531L261.259 63.904L257.723 55.232H259.339L262.091 62.336L264.811 55.232H266.315ZM275.661 55.088C276.418 55.088 277.079 55.2533 277.645 55.584C278.221 55.9147 278.647 56.3307 278.925 56.832V55.232H280.397V64.192C280.397 64.992 280.226 65.7013 279.885 66.32C279.543 66.9493 279.053 67.44 278.413 67.792C277.783 68.144 277.047 68.32 276.205 68.32C275.053 68.32 274.093 68.048 273.325 67.504C272.557 66.96 272.103 66.2187 271.965 65.28H273.405C273.565 65.8133 273.895 66.24 274.397 66.56C274.898 66.8907 275.501 67.056 276.205 67.056C277.005 67.056 277.655 66.8053 278.157 66.304C278.669 65.8027 278.925 65.0987 278.925 64.192V62.352C278.637 62.864 278.21 63.2907 277.645 63.632C277.079 63.9733 276.418 64.144 275.661 64.144C274.882 64.144 274.173 63.952 273.533 63.568C272.903 63.184 272.407 62.6453 272.045 61.952C271.682 61.2587 271.501 60.4693 271.501 59.584C271.501 58.688 271.682 57.904 272.045 57.232C272.407 56.5493 272.903 56.0213 273.533 55.648C274.173 55.2747 274.882 55.088 275.661 55.088ZM278.925 59.6C278.925 58.9387 278.791 58.3627 278.525 57.872C278.258 57.3813 277.895 57.008 277.437 56.752C276.989 56.4853 276.493 56.352 275.949 56.352C275.405 56.352 274.909 56.48 274.461 56.736C274.013 56.992 273.655 57.3653 273.389 57.856C273.122 58.3467 272.989 58.9227 272.989 59.584C272.989 60.256 273.122 60.8427 273.389 61.344C273.655 61.8347 274.013 62.2133 274.461 62.48C274.909 62.736 275.405 62.864 275.949 62.864C276.493 62.864 276.989 62.736 277.437 62.48C277.895 62.2133 278.258 61.8347 278.525 61.344C278.791 60.8427 278.925 60.2613 278.925 59.6ZM286.681 64.144C285.86 64.144 285.113 63.9573 284.441 63.584C283.78 63.2107 283.257 62.6827 282.873 62C282.5 61.3067 282.313 60.5067 282.313 59.6C282.313 58.704 282.505 57.9147 282.889 57.232C283.284 56.5387 283.817 56.0107 284.489 55.648C285.161 55.2747 285.913 55.088 286.745 55.088C287.577 55.088 288.329 55.2747 289.001 55.648C289.673 56.0107 290.201 56.5333 290.585 57.216C290.98 57.8987 291.177 58.6933 291.177 59.6C291.177 60.5067 290.974 61.3067 290.569 62C290.174 62.6827 289.636 63.2107 288.953 63.584C288.27 63.9573 287.513 64.144 286.681 64.144ZM286.681 62.864C287.204 62.864 287.694 62.7413 288.153 62.496C288.612 62.2507 288.98 61.8827 289.257 61.392C289.545 60.9013 289.689 60.304 289.689 59.6C289.689 58.896 289.55 58.2987 289.273 57.808C288.996 57.3173 288.633 56.9547 288.185 56.72C287.737 56.4747 287.252 56.352 286.729 56.352C286.196 56.352 285.705 56.4747 285.257 56.72C284.82 56.9547 284.468 57.3173 284.201 57.808C283.934 58.2987 283.801 58.896 283.801 59.6C283.801 60.3147 283.929 60.9173 284.185 61.408C284.452 61.8987 284.804 62.2667 285.241 62.512C285.678 62.7467 286.158 62.864 286.681 62.864ZM301.091 59.28C301.091 59.5573 301.075 59.8507 301.043 60.16H294.035C294.089 61.024 294.382 61.7013 294.915 62.192C295.459 62.672 296.115 62.912 296.883 62.912C297.513 62.912 298.035 62.768 298.451 62.48C298.878 62.1813 299.177 61.7867 299.347 61.296H300.915C300.681 62.1387 300.211 62.8267 299.507 63.36C298.803 63.8827 297.929 64.144 296.883 64.144C296.051 64.144 295.305 63.9573 294.643 63.584C293.993 63.2107 293.481 62.6827 293.107 62C292.734 61.3067 292.547 60.5067 292.547 59.6C292.547 58.6933 292.729 57.8987 293.091 57.216C293.454 56.5333 293.961 56.0107 294.611 55.648C295.273 55.2747 296.03 55.088 296.883 55.088C297.715 55.088 298.451 55.2693 299.091 55.632C299.731 55.9947 300.222 56.496 300.563 57.136C300.915 57.7653 301.091 58.48 301.091 59.28ZM299.587 58.976C299.587 58.4213 299.465 57.9467 299.219 57.552C298.974 57.1467 298.638 56.8427 298.211 56.64C297.795 56.4267 297.331 56.32 296.819 56.32C296.083 56.32 295.454 56.5547 294.931 57.024C294.419 57.4933 294.126 58.144 294.051 58.976H299.587ZM306.117 64.144C305.445 64.144 304.843 64.032 304.309 63.808C303.776 63.5733 303.355 63.2533 303.045 62.848C302.736 62.432 302.565 61.9573 302.533 61.424H304.037C304.08 61.8613 304.283 62.2187 304.645 62.496C305.019 62.7733 305.504 62.912 306.101 62.912C306.656 62.912 307.093 62.7893 307.413 62.544C307.733 62.2987 307.893 61.9893 307.893 61.616C307.893 61.232 307.723 60.9493 307.381 60.768C307.04 60.576 306.512 60.3893 305.797 60.208C305.147 60.0373 304.613 59.8667 304.197 59.696C303.792 59.5147 303.44 59.2533 303.141 58.912C302.853 58.56 302.709 58.1013 302.709 57.536C302.709 57.088 302.843 56.6773 303.109 56.304C303.376 55.9307 303.755 55.6373 304.245 55.424C304.736 55.2 305.296 55.088 305.925 55.088C306.896 55.088 307.68 55.3333 308.277 55.824C308.875 56.3147 309.195 56.9867 309.237 57.84H307.781C307.749 57.3813 307.563 57.0133 307.221 56.736C306.891 56.4587 306.443 56.32 305.877 56.32C305.355 56.32 304.939 56.432 304.629 56.656C304.32 56.88 304.165 57.1733 304.165 57.536C304.165 57.824 304.256 58.064 304.437 58.256C304.629 58.4373 304.864 58.5867 305.141 58.704C305.429 58.8107 305.824 58.9333 306.325 59.072C306.955 59.2427 307.467 59.4133 307.861 59.584C308.256 59.744 308.592 59.9893 308.869 60.32C309.157 60.6507 309.307 61.0827 309.317 61.616C309.317 62.096 309.184 62.528 308.917 62.912C308.651 63.296 308.272 63.6 307.781 63.824C307.301 64.0373 306.747 64.144 306.117 64.144ZM84.688 91.584C84.688 90.688 84.8693 89.904 85.232 89.232C85.5947 88.5493 86.0907 88.0213 86.72 87.648C87.36 87.2747 88.0693 87.088 88.848 87.088C89.616 87.088 90.2827 87.2533 90.848 87.584C91.4133 87.9147 91.8347 88.3307 92.112 88.832V87.232H93.584V96H92.112V94.368C91.824 94.88 91.392 95.3067 90.816 95.648C90.2507 95.9787 89.5893 96.144 88.832 96.144C88.0533 96.144 87.3493 95.952 86.72 95.568C86.0907 95.184 85.5947 94.6453 85.232 93.952C84.8693 93.2587 84.688 92.4693 84.688 91.584ZM92.112 91.6C92.112 90.9387 91.9787 90.3627 91.712 89.872C91.4453 89.3813 91.0827 89.008 90.624 88.752C90.176 88.4853 89.68 88.352 89.136 88.352C88.592 88.352 88.096 88.48 87.648 88.736C87.2 88.992 86.8427 89.3653 86.576 89.856C86.3093 90.3467 86.176 90.9227 86.176 91.584C86.176 92.256 86.3093 92.8427 86.576 93.344C86.8427 93.8347 87.2 94.2133 87.648 94.48C88.096 94.736 88.592 94.864 89.136 94.864C89.68 94.864 90.176 94.736 90.624 94.48C91.0827 94.2133 91.4453 93.8347 91.712 93.344C91.9787 92.8427 92.112 92.2613 92.112 91.6ZM100.317 87.072C101.383 87.072 102.247 87.3973 102.909 88.048C103.57 88.688 103.901 89.616 103.901 90.832V96H102.461V91.04C102.461 90.1653 102.242 89.4987 101.805 89.04C101.367 88.5707 100.77 88.336 100.013 88.336C99.2445 88.336 98.6312 88.576 98.1725 89.056C97.7245 89.536 97.5005 90.2347 97.5005 91.152V96H96.0445V87.232H97.5005V88.48C97.7885 88.032 98.1778 87.6853 98.6685 87.44C99.1698 87.1947 99.7192 87.072 100.317 87.072ZM105.735 91.584C105.735 90.688 105.916 89.904 106.279 89.232C106.642 88.5493 107.138 88.0213 107.767 87.648C108.407 87.2747 109.122 87.088 109.911 87.088C110.594 87.088 111.228 87.248 111.815 87.568C112.402 87.8773 112.85 88.288 113.159 88.8V84.16H114.631V96H113.159V94.352C112.871 94.8747 112.444 95.3067 111.879 95.648C111.314 95.9787 110.652 96.144 109.895 96.144C109.116 96.144 108.407 95.952 107.767 95.568C107.138 95.184 106.642 94.6453 106.279 93.952C105.916 93.2587 105.735 92.4693 105.735 91.584ZM113.159 91.6C113.159 90.9387 113.026 90.3627 112.759 89.872C112.492 89.3813 112.13 89.008 111.671 88.752C111.223 88.4853 110.727 88.352 110.183 88.352C109.639 88.352 109.143 88.48 108.695 88.736C108.247 88.992 107.89 89.3653 107.623 89.856C107.356 90.3467 107.223 90.9227 107.223 91.584C107.223 92.256 107.356 92.8427 107.623 93.344C107.89 93.8347 108.247 94.2133 108.695 94.48C109.143 94.736 109.639 94.864 110.183 94.864C110.727 94.864 111.223 94.736 111.671 94.48C112.13 94.2133 112.492 93.8347 112.759 93.344C113.026 92.8427 113.159 92.2613 113.159 91.6ZM120.813 91.6C120.813 90.6933 120.994 89.904 121.357 89.232C121.72 88.5493 122.221 88.0213 122.861 87.648C123.512 87.2747 124.253 87.088 125.085 87.088C126.162 87.088 127.048 87.3493 127.741 87.872C128.445 88.3947 128.909 89.12 129.133 90.048H127.565C127.416 89.5147 127.122 89.0933 126.685 88.784C126.258 88.4747 125.725 88.32 125.085 88.32C124.253 88.32 123.581 88.608 123.069 89.184C122.557 89.7493 122.301 90.5547 122.301 91.6C122.301 92.656 122.557 93.472 123.069 94.048C123.581 94.624 124.253 94.912 125.085 94.912C125.725 94.912 126.258 94.7627 126.685 94.464C127.112 94.1653 127.405 93.7387 127.565 93.184H129.133C128.898 94.08 128.429 94.8 127.725 95.344C127.021 95.8773 126.141 96.144 125.085 96.144C124.253 96.144 123.512 95.9573 122.861 95.584C122.221 95.2107 121.72 94.6827 121.357 94C120.994 93.3173 120.813 92.5173 120.813 91.6ZM134.9 96.144C134.078 96.144 133.332 95.9573 132.66 95.584C131.998 95.2107 131.476 94.6827 131.092 94C130.718 93.3067 130.532 92.5067 130.532 91.6C130.532 90.704 130.724 89.9147 131.108 89.232C131.502 88.5387 132.036 88.0107 132.708 87.648C133.38 87.2747 134.132 87.088 134.964 87.088C135.796 87.088 136.548 87.2747 137.22 87.648C137.892 88.0107 138.42 88.5333 138.804 89.216C139.198 89.8987 139.396 90.6933 139.396 91.6C139.396 92.5067 139.193 93.3067 138.788 94C138.393 94.6827 137.854 95.2107 137.172 95.584C136.489 95.9573 135.732 96.144 134.9 96.144ZM134.9 94.864C135.422 94.864 135.913 94.7413 136.372 94.496C136.83 94.2507 137.198 93.8827 137.476 93.392C137.764 92.9013 137.908 92.304 137.908 91.6C137.908 90.896 137.769 90.2987 137.492 89.808C137.214 89.3173 136.852 88.9547 136.404 88.72C135.956 88.4747 135.47 88.352 134.948 88.352C134.414 88.352 133.924 88.4747 133.476 88.72C133.038 88.9547 132.686 89.3173 132.42 89.808C132.153 90.2987 132.02 90.896 132.02 91.6C132.02 92.3147 132.148 92.9173 132.404 93.408C132.67 93.8987 133.022 94.2667 133.46 94.512C133.897 94.7467 134.377 94.864 134.9 94.864ZM151.854 87.072C152.537 87.072 153.145 87.216 153.678 87.504C154.211 87.7813 154.633 88.2027 154.942 88.768C155.251 89.3333 155.406 90.0213 155.406 90.832V96H153.966V91.04C153.966 90.1653 153.747 89.4987 153.31 89.04C152.883 88.5707 152.302 88.336 151.566 88.336C150.809 88.336 150.206 88.5813 149.758 89.072C149.31 89.552 149.086 90.2507 149.086 91.168V96H147.646V91.04C147.646 90.1653 147.427 89.4987 146.99 89.04C146.563 88.5707 145.982 88.336 145.246 88.336C144.489 88.336 143.886 88.5813 143.438 89.072C142.99 89.552 142.766 90.2507 142.766 91.168V96H141.31V87.232H142.766V88.496C143.054 88.0373 143.438 87.6853 143.918 87.44C144.409 87.1947 144.947 87.072 145.534 87.072C146.27 87.072 146.921 87.2373 147.486 87.568C148.051 87.8987 148.473 88.384 148.75 89.024C148.995 88.4053 149.401 87.9253 149.966 87.584C150.531 87.2427 151.161 87.072 151.854 87.072ZM165.795 91.28C165.795 91.5573 165.779 91.8507 165.747 92.16H158.739C158.792 93.024 159.085 93.7013 159.619 94.192C160.163 94.672 160.819 94.912 161.587 94.912C162.216 94.912 162.739 94.768 163.155 94.48C163.581 94.1813 163.88 93.7867 164.051 93.296H165.619C165.384 94.1387 164.915 94.8267 164.211 95.36C163.507 95.8827 162.632 96.144 161.587 96.144C160.755 96.144 160.008 95.9573 159.347 95.584C158.696 95.2107 158.184 94.6827 157.811 94C157.437 93.3067 157.251 92.5067 157.251 91.6C157.251 90.6933 157.432 89.8987 157.795 89.216C158.157 88.5333 158.664 88.0107 159.315 87.648C159.976 87.2747 160.733 87.088 161.587 87.088C162.419 87.088 163.155 87.2693 163.795 87.632C164.435 87.9947 164.925 88.496 165.267 89.136C165.619 89.7653 165.795 90.48 165.795 91.28ZM164.291 90.976C164.291 90.4213 164.168 89.9467 163.923 89.552C163.677 89.1467 163.341 88.8427 162.915 88.64C162.499 88.4267 162.035 88.32 161.523 88.32C160.787 88.32 160.157 88.5547 159.635 89.024C159.123 89.4933 158.829 90.144 158.755 90.976H164.291ZM170.82 96.144C170.148 96.144 169.546 96.032 169.012 95.808C168.479 95.5733 168.058 95.2533 167.748 94.848C167.439 94.432 167.268 93.9573 167.236 93.424H168.74C168.783 93.8613 168.986 94.2187 169.348 94.496C169.722 94.7733 170.207 94.912 170.804 94.912C171.359 94.912 171.796 94.7893 172.116 94.544C172.436 94.2987 172.596 93.9893 172.596 93.616C172.596 93.232 172.426 92.9493 172.084 92.768C171.743 92.576 171.215 92.3893 170.5 92.208C169.85 92.0373 169.316 91.8667 168.9 91.696C168.495 91.5147 168.143 91.2533 167.844 90.912C167.556 90.56 167.412 90.1013 167.412 89.536C167.412 89.088 167.546 88.6773 167.812 88.304C168.079 87.9307 168.458 87.6373 168.948 87.424C169.439 87.2 169.999 87.088 170.628 87.088C171.599 87.088 172.383 87.3333 172.98 87.824C173.578 88.3147 173.898 88.9867 173.94 89.84H172.484C172.452 89.3813 172.266 89.0133 171.924 88.736C171.594 88.4587 171.146 88.32 170.58 88.32C170.058 88.32 169.642 88.432 169.332 88.656C169.023 88.88 168.868 89.1733 168.868 89.536C168.868 89.824 168.959 90.064 169.14 90.256C169.332 90.4373 169.567 90.5867 169.844 90.704C170.132 90.8107 170.527 90.9333 171.028 91.072C171.658 91.2427 172.17 91.4133 172.564 91.584C172.959 91.744 173.295 91.9893 173.572 92.32C173.86 92.6507 174.01 93.0827 174.02 93.616C174.02 94.096 173.887 94.528 173.62 94.912C173.354 95.296 172.975 95.6 172.484 95.824C172.004 96.0373 171.45 96.144 170.82 96.144ZM181.093 85.808C180.816 85.808 180.581 85.712 180.389 85.52C180.197 85.328 180.101 85.0933 180.101 84.816C180.101 84.5387 180.197 84.304 180.389 84.112C180.581 83.92 180.816 83.824 181.093 83.824C181.36 83.824 181.584 83.92 181.765 84.112C181.957 84.304 182.053 84.5387 182.053 84.816C182.053 85.0933 181.957 85.328 181.765 85.52C181.584 85.712 181.36 85.808 181.093 85.808ZM181.797 87.232V96H180.341V87.232H181.797ZM188.551 87.072C189.618 87.072 190.482 87.3973 191.143 88.048C191.804 88.688 192.135 89.616 192.135 90.832V96H190.695V91.04C190.695 90.1653 190.476 89.4987 190.039 89.04C189.602 88.5707 189.004 88.336 188.247 88.336C187.479 88.336 186.866 88.576 186.407 89.056C185.959 89.536 185.735 90.2347 185.735 91.152V96H184.279V87.232H185.735V88.48C186.023 88.032 186.412 87.6853 186.903 87.44C187.404 87.1947 187.954 87.072 188.551 87.072ZM200.235 88.864C200.534 88.3413 200.971 87.9147 201.547 87.584C202.123 87.2533 202.779 87.088 203.515 87.088C204.304 87.088 205.014 87.2747 205.643 87.648C206.272 88.0213 206.768 88.5493 207.131 89.232C207.494 89.904 207.675 90.688 207.675 91.584C207.675 92.4693 207.494 93.2587 207.131 93.952C206.768 94.6453 206.267 95.184 205.627 95.568C204.998 95.952 204.294 96.144 203.515 96.144C202.758 96.144 202.091 95.9787 201.515 95.648C200.95 95.3173 200.523 94.896 200.235 94.384V96H198.779V84.16H200.235V88.864ZM206.187 91.584C206.187 90.9227 206.054 90.3467 205.787 89.856C205.52 89.3653 205.158 88.992 204.699 88.736C204.251 88.48 203.755 88.352 203.211 88.352C202.678 88.352 202.182 88.4853 201.723 88.752C201.275 89.008 200.912 89.3867 200.635 89.888C200.368 90.3787 200.235 90.9493 200.235 91.6C200.235 92.2613 200.368 92.8427 200.635 93.344C200.912 93.8347 201.275 94.2133 201.723 94.48C202.182 94.736 202.678 94.864 203.211 94.864C203.755 94.864 204.251 94.736 204.699 94.48C205.158 94.2133 205.52 93.8347 205.787 93.344C206.054 92.8427 206.187 92.256 206.187 91.584ZM217.367 87.232V96H215.911V94.704C215.634 95.152 215.245 95.504 214.743 95.76C214.253 96.0053 213.709 96.128 213.111 96.128C212.429 96.128 211.815 95.9893 211.271 95.712C210.727 95.424 210.295 94.9973 209.975 94.432C209.666 93.8667 209.511 93.1787 209.511 92.368V87.232H210.951V92.176C210.951 93.04 211.17 93.7067 211.607 94.176C212.045 94.6347 212.642 94.864 213.399 94.864C214.178 94.864 214.791 94.624 215.239 94.144C215.687 93.664 215.911 92.9653 215.911 92.048V87.232H217.367ZM222.93 96.144C222.258 96.144 221.655 96.032 221.122 95.808C220.588 95.5733 220.167 95.2533 219.858 94.848C219.548 94.432 219.378 93.9573 219.346 93.424H220.85C220.892 93.8613 221.095 94.2187 221.458 94.496C221.831 94.7733 222.316 94.912 222.914 94.912C223.468 94.912 223.906 94.7893 224.226 94.544C224.546 94.2987 224.706 93.9893 224.706 93.616C224.706 93.232 224.535 92.9493 224.194 92.768C223.852 92.576 223.324 92.3893 222.61 92.208C221.959 92.0373 221.426 91.8667 221.01 91.696C220.604 91.5147 220.252 91.2533 219.954 90.912C219.666 90.56 219.522 90.1013 219.522 89.536C219.522 89.088 219.655 88.6773 219.922 88.304C220.188 87.9307 220.567 87.6373 221.058 87.424C221.548 87.2 222.108 87.088 222.738 87.088C223.708 87.088 224.492 87.3333 225.09 87.824C225.687 88.3147 226.007 88.9867 226.05 89.84H224.594C224.562 89.3813 224.375 89.0133 224.034 88.736C223.703 88.4587 223.255 88.32 222.69 88.32C222.167 88.32 221.751 88.432 221.442 88.656C221.132 88.88 220.978 89.1733 220.978 89.536C220.978 89.824 221.068 90.064 221.25 90.256C221.442 90.4373 221.676 90.5867 221.954 90.704C222.242 90.8107 222.636 90.9333 223.138 91.072C223.767 91.2427 224.279 91.4133 224.674 91.584C225.068 91.744 225.404 91.9893 225.682 92.32C225.97 92.6507 226.119 93.0827 226.13 93.616C226.13 94.096 225.996 94.528 225.73 94.912C225.463 95.296 225.084 95.6 224.594 95.824C224.114 96.0373 223.559 96.144 222.93 96.144ZM228.937 85.808C228.66 85.808 228.425 85.712 228.233 85.52C228.041 85.328 227.945 85.0933 227.945 84.816C227.945 84.5387 228.041 84.304 228.233 84.112C228.425 83.92 228.66 83.824 228.937 83.824C229.204 83.824 229.428 83.92 229.609 84.112C229.801 84.304 229.897 84.5387 229.897 84.816C229.897 85.0933 229.801 85.328 229.609 85.52C229.428 85.712 229.204 85.808 228.937 85.808ZM229.641 87.232V96H228.185V87.232H229.641ZM236.395 87.072C237.461 87.072 238.325 87.3973 238.987 88.048C239.648 88.688 239.979 89.616 239.979 90.832V96H238.539V91.04C238.539 90.1653 238.32 89.4987 237.883 89.04C237.445 88.5707 236.848 88.336 236.091 88.336C235.323 88.336 234.709 88.576 234.251 89.056C233.803 89.536 233.579 90.2347 233.579 91.152V96H232.123V87.232H233.579V88.48C233.867 88.032 234.256 87.6853 234.747 87.44C235.248 87.1947 235.797 87.072 236.395 87.072ZM250.357 91.28C250.357 91.5573 250.341 91.8507 250.309 92.16H243.301C243.354 93.024 243.648 93.7013 244.181 94.192C244.725 94.672 245.381 94.912 246.149 94.912C246.778 94.912 247.301 94.768 247.717 94.48C248.144 94.1813 248.442 93.7867 248.613 93.296H250.181C249.946 94.1387 249.477 94.8267 248.773 95.36C248.069 95.8827 247.194 96.144 246.149 96.144C245.317 96.144 244.57 95.9573 243.909 95.584C243.258 95.2107 242.746 94.6827 242.373 94C242 93.3067 241.813 92.5067 241.813 91.6C241.813 90.6933 241.994 89.8987 242.357 89.216C242.72 88.5333 243.226 88.0107 243.877 87.648C244.538 87.2747 245.296 87.088 246.149 87.088C246.981 87.088 247.717 87.2693 248.357 87.632C248.997 87.9947 249.488 88.496 249.829 89.136C250.181 89.7653 250.357 90.48 250.357 91.28ZM248.853 90.976C248.853 90.4213 248.73 89.9467 248.485 89.552C248.24 89.1467 247.904 88.8427 247.477 88.64C247.061 88.4267 246.597 88.32 246.085 88.32C245.349 88.32 244.72 88.5547 244.197 89.024C243.685 89.4933 243.392 90.144 243.317 90.976H248.853ZM255.383 96.144C254.711 96.144 254.108 96.032 253.575 95.808C253.042 95.5733 252.62 95.2533 252.311 94.848C252.002 94.432 251.831 93.9573 251.799 93.424H253.303C253.346 93.8613 253.548 94.2187 253.911 94.496C254.284 94.7733 254.77 94.912 255.367 94.912C255.922 94.912 256.359 94.7893 256.679 94.544C256.999 94.2987 257.159 93.9893 257.159 93.616C257.159 93.232 256.988 92.9493 256.647 92.768C256.306 92.576 255.778 92.3893 255.063 92.208C254.412 92.0373 253.879 91.8667 253.463 91.696C253.058 91.5147 252.706 91.2533 252.407 90.912C252.119 90.56 251.975 90.1013 251.975 89.536C251.975 89.088 252.108 88.6773 252.375 88.304C252.642 87.9307 253.02 87.6373 253.511 87.424C254.002 87.2 254.562 87.088 255.191 87.088C256.162 87.088 256.946 87.3333 257.543 87.824C258.14 88.3147 258.46 88.9867 258.503 89.84H257.047C257.015 89.3813 256.828 89.0133 256.487 88.736C256.156 88.4587 255.708 88.32 255.143 88.32C254.62 88.32 254.204 88.432 253.895 88.656C253.586 88.88 253.431 89.1733 253.431 89.536C253.431 89.824 253.522 90.064 253.703 90.256C253.895 90.4373 254.13 90.5867 254.407 90.704C254.695 90.8107 255.09 90.9333 255.591 91.072C256.22 91.2427 256.732 91.4133 257.127 91.584C257.522 91.744 257.858 91.9893 258.135 92.32C258.423 92.6507 258.572 93.0827 258.583 93.616C258.583 94.096 258.45 94.528 258.183 94.912C257.916 95.296 257.538 95.6 257.047 95.824C256.567 96.0373 256.012 96.144 255.383 96.144ZM263.742 96.144C263.07 96.144 262.468 96.032 261.934 95.808C261.401 95.5733 260.98 95.2533 260.67 94.848C260.361 94.432 260.19 93.9573 260.158 93.424H261.662C261.705 93.8613 261.908 94.2187 262.27 94.496C262.644 94.7733 263.129 94.912 263.726 94.912C264.281 94.912 264.718 94.7893 265.038 94.544C265.358 94.2987 265.518 93.9893 265.518 93.616C265.518 93.232 265.348 92.9493 265.006 92.768C264.665 92.576 264.137 92.3893 263.422 92.208C262.772 92.0373 262.238 91.8667 261.822 91.696C261.417 91.5147 261.065 91.2533 260.766 90.912C260.478 90.56 260.334 90.1013 260.334 89.536C260.334 89.088 260.468 88.6773 260.734 88.304C261.001 87.9307 261.38 87.6373 261.87 87.424C262.361 87.2 262.921 87.088 263.55 87.088C264.521 87.088 265.305 87.3333 265.902 87.824C266.5 88.3147 266.82 88.9867 266.862 89.84H265.406C265.374 89.3813 265.188 89.0133 264.846 88.736C264.516 88.4587 264.068 88.32 263.502 88.32C262.98 88.32 262.564 88.432 262.254 88.656C261.945 88.88 261.79 89.1733 261.79 89.536C261.79 89.824 261.881 90.064 262.062 90.256C262.254 90.4373 262.489 90.5867 262.766 90.704C263.054 90.8107 263.449 90.9333 263.95 91.072C264.58 91.2427 265.092 91.4133 265.486 91.584C265.881 91.744 266.217 91.9893 266.494 92.32C266.782 92.6507 266.932 93.0827 266.942 93.616C266.942 94.096 266.809 94.528 266.542 94.912C266.276 95.296 265.897 95.6 265.406 95.824C264.926 96.0373 264.372 96.144 263.742 96.144Z" fill="#575455"/>
<circle cx="30" cy="30" r="30" fill="#F75C4E"/>
<path d="M40 20L29 31" stroke="white" stroke-width="2" stroke-linecap="round" stroke-linejoin="round"/>
<path d="M40 20L33 40L29 31L20 27L40 20Z" stroke="white" stroke-width="2" stroke-linecap="round" stroke-linejoin="round"/>
<path d="M94.88 7.88V10.12H90.98V22H88.16V10.12H84.28V7.88H94.88ZM99.2523 13.04C99.6657 12.3333 100.212 11.78 100.892 11.38C101.572 10.9667 102.332 10.76 103.172 10.76V13.78H102.352C100.286 13.78 99.2523 14.74 99.2523 16.66V22H96.4323V10.92H99.2523V13.04ZM109.073 10.78C110.006 10.78 110.806 11 111.473 11.44C112.14 11.88 112.613 12.4733 112.893 13.22V10.92H115.693V22H112.893V19.68C112.613 20.4267 112.14 21.0267 111.473 21.48C110.806 21.92 110.006 22.14 109.073 22.14C108.14 22.14 107.3 21.9133 106.553 21.46C105.806 21.0067 105.22 20.3533 104.793 19.5C104.38 18.6333 104.173 17.62 104.173 16.46C104.173 15.3 104.38 14.2933 104.793 13.44C105.22 12.5733 105.806 11.9133 106.553 11.46C107.3 11.0067 108.14 10.78 109.073 10.78ZM109.953 13.24C109.073 13.24 108.366 13.5267 107.833 14.1C107.3 14.6733 107.033 15.46 107.033 16.46C107.033 17.46 107.3 18.2467 107.833 18.82C108.366 19.38 109.073 19.66 109.953 19.66C110.806 19.66 111.506 19.3733 112.053 18.8C112.613 18.2133 112.893 17.4333 112.893 16.46C112.893 15.4733 112.613 14.6933 112.053 14.12C111.506 13.5333 110.806 13.24 109.953 13.24ZM123.229 10.78C124.655 10.78 125.842 11.1667 126.789 11.94C127.749 12.7133 128.349 13.7667 128.589 15.1H125.609C125.489 14.5133 125.215 14.0533 124.789 13.72C124.362 13.3733 123.822 13.2 123.169 13.2C122.422 13.2 121.795 13.48 121.289 14.04C120.795 14.5867 120.549 15.3933 120.549 16.46C120.549 17.5267 120.795 18.34 121.289 18.9C121.795 19.4467 122.422 19.72 123.169 19.72C123.822 19.72 124.362 19.5533 124.789 19.22C125.215 18.8733 125.489 18.4067 125.609 17.82H128.589C128.349 19.1533 127.749 20.2067 126.789 20.98C125.842 21.7533 124.655 22.14 123.229 22.14C122.149 22.14 121.189 21.9133 120.349 21.46C119.509 20.9933 118.855 20.3333 118.389 19.48C117.922 18.6267 117.689 17.62 117.689 16.46C117.689 15.3 117.922 14.2933 118.389 13.44C118.855 12.5733 119.509 11.9133 120.349 11.46C121.189 11.0067 122.149 10.78 123.229 10.78ZM137.073 22L133.413 17.16V22H130.593V7.2H133.413V15.52L137.053 10.92H140.393L135.733 16.44L140.513 22H137.073ZM149.057 19.84H153.797V22H146.237V7.88H149.057V19.84ZM165.895 16.04C165.895 16.32 165.862 16.64 165.795 17H157.675C157.715 17.9867 157.982 18.7133 158.475 19.18C158.969 19.6467 159.582 19.88 160.315 19.88C160.969 19.88 161.509 19.72 161.935 19.4C162.375 19.08 162.655 18.6467 162.775 18.1H165.755C165.609 18.8733 165.295 19.5667 164.815 20.18C164.335 20.7933 163.715 21.2733 162.955 21.62C162.209 21.9667 161.375 22.14 160.455 22.14C159.375 22.14 158.415 21.9133 157.575 21.46C156.735 20.9933 156.082 20.3333 155.615 19.48C155.149 18.6267 154.915 17.62 154.915 16.46C154.915 15.3 155.149 14.2933 155.615 13.44C156.082 12.5733 156.735 11.9133 157.575 11.46C158.415 11.0067 159.375 10.78 160.455 10.78C161.549 10.78 162.502 11.0067 163.315 11.46C164.142 11.9133 164.775 12.54 165.215 13.34C165.669 14.1267 165.895 15.0267 165.895 16.04ZM163.055 15.76C163.095 14.8533 162.855 14.1667 162.335 13.7C161.829 13.2333 161.202 13 160.455 13C159.695 13 159.055 13.2333 158.535 13.7C158.015 14.1667 157.729 14.8533 157.675 15.76H163.055ZM172.237 10.78C173.171 10.78 173.971 11 174.637 11.44C175.304 11.88 175.777 12.4733 176.057 13.22V10.92H178.857V22H176.057V19.68C175.777 20.4267 175.304 21.0267 174.637 21.48C173.971 21.92 173.171 22.14 172.237 22.14C171.304 22.14 170.464 21.9133 169.717 21.46C168.971 21.0067 168.384 20.3533 167.957 19.5C167.544 18.6333 167.337 17.62 167.337 16.46C167.337 15.3 167.544 14.2933 167.957 13.44C168.384 12.5733 168.971 11.9133 169.717 11.46C170.464 11.0067 171.304 10.78 172.237 10.78ZM173.117 13.24C172.237 13.24 171.531 13.5267 170.997 14.1C170.464 14.6733 170.197 15.46 170.197 16.46C170.197 17.46 170.464 18.2467 170.997 18.82C171.531 19.38 172.237 19.66 173.117 19.66C173.971 19.66 174.671 19.3733 175.217 18.8C175.777 18.2133 176.057 17.4333 176.057 16.46C176.057 15.4733 175.777 14.6933 175.217 14.12C174.671 13.5333 173.971 13.24 173.117 13.24ZM185.753 10.78C186.686 10.78 187.479 11 188.133 11.44C188.799 11.88 189.279 12.4733 189.573 13.22V7.2H192.373V22H189.573V19.68C189.279 20.4267 188.799 21.0267 188.133 21.48C187.479 21.92 186.686 22.14 185.753 22.14C184.819 22.14 183.979 21.9133 183.233 21.46C182.486 21.0067 181.899 20.3533 181.473 19.5C181.059 18.6333 180.853 17.62 180.853 16.46C180.853 15.3 181.059 14.2933 181.473 13.44C181.899 12.5733 182.486 11.9133 183.233 11.46C183.979 11.0067 184.819 10.78 185.753 10.78ZM186.633 13.24C185.753 13.24 185.046 13.5267 184.513 14.1C183.979 14.6733 183.713 15.46 183.713 16.46C183.713 17.46 183.979 18.2467 184.513 18.82C185.046 19.38 185.753 19.66 186.633 19.66C187.486 19.66 188.186 19.3733 188.733 18.8C189.293 18.2133 189.573 17.4333 189.573 16.46C189.573 15.4733 189.293 14.6933 188.733 14.12C188.186 13.5333 187.486 13.24 186.633 13.24ZM198.748 10.78C200.095 10.78 201.175 11.12 201.988 11.8C202.802 12.48 203.308 13.3867 203.508 14.52H200.868C200.762 13.9867 200.522 13.56 200.148 13.24C199.775 12.92 199.288 12.76 198.688 12.76C198.208 12.76 197.835 12.8733 197.568 13.1C197.302 13.3267 197.168 13.6333 197.168 14.02C197.168 14.3267 197.275 14.5733 197.488 14.76C197.702 14.9467 197.968 15.0933 198.288 15.2C198.608 15.3067 199.068 15.4333 199.668 15.58C200.508 15.7667 201.188 15.9667 201.708 16.18C202.242 16.38 202.695 16.7067 203.068 17.16C203.455 17.6 203.648 18.2 203.648 18.96C203.648 19.9067 203.275 20.6733 202.528 21.26C201.795 21.8467 200.802 22.14 199.548 22.14C198.108 22.14 196.955 21.82 196.088 21.18C195.222 20.5267 194.695 19.6 194.508 18.4H197.208C197.275 18.9467 197.515 19.38 197.928 19.7C198.342 20.0067 198.882 20.16 199.548 20.16C200.028 20.16 200.395 20.0467 200.648 19.82C200.902 19.58 201.028 19.2733 201.028 18.9C201.028 18.58 200.915 18.32 200.688 18.12C200.475 17.92 200.202 17.7667 199.868 17.66C199.548 17.5533 199.088 17.4267 198.488 17.28C197.662 17.0933 196.988 16.9067 196.468 16.72C195.962 16.52 195.522 16.2067 195.148 15.78C194.788 15.3533 194.608 14.7667 194.608 14.02C194.608 13.06 194.975 12.28 195.708 11.68C196.442 11.08 197.455 10.78 198.748 10.78Z" fill="#070F18"/>
</svg>
